<svg width="225" height="256" viewBox="0 0 225 256" fill="none" xmlns="http://www.w3.org/2000/svg">
<g clip-path="url(#clip0_206_118)">
<path d="M208.707 52.162L128.071 4.28697C123.366 1.4814 117.991 0.000183105 112.514 0.000183105C107.036 0.000183105 101.661 1.4814 96.9567 4.28697L16.3037 52.162C11.5348 55.0388 7.59465 59.1046 4.86886 63.9614C2.14307 68.8183 0.725092 74.2996 0.753721 79.869V175.603C0.727867 181.17 2.14717 186.648 4.87282 191.501C7.59847 196.355 11.5372 200.419 16.3037 203.294L96.9397 251.153C101.645 253.957 107.02 255.437 112.497 255.437C117.974 255.437 123.35 253.957 128.055 251.153L208.691 203.294C213.463 200.419 217.406 196.354 220.135 191.497C222.863 186.64 224.284 181.158 224.257 175.587V79.869C224.285 74.2996 222.867 68.8183 220.142 63.9614C217.416 59.1046 213.476 55.0388 208.707 52.162V52.162Z" fill="white"/>
<path d="M209.166 52.277L128.352 4.29702C123.637 1.48499 118.249 0.000366211 112.76 0.000366211C107.27 0.000366211 101.883 1.48499 97.1677 4.29702L16.3377 52.277C11.5584 55.1602 7.60959 59.235 4.87784 64.1025C2.1461 68.97 0.725024 74.4634 0.753722 80.045V175.99C0.727799 181.569 2.15019 187.059 4.8818 191.923C7.61342 196.788 11.5607 200.86 16.3377 203.742L97.1517 251.706C101.867 254.516 107.254 256 112.743 256C118.232 256 123.619 254.516 128.335 251.706L209.149 203.742C213.931 200.861 217.883 196.787 220.618 191.919C223.353 187.051 224.776 181.556 224.749 175.973V80.045C224.778 74.4635 223.357 68.9702 220.625 64.1027C217.893 59.2352 213.945 55.1604 209.166 52.277V52.277ZM99.9837 246.803L19.1697 198.839C15.2435 196.46 11.9998 193.105 9.75406 189.101C7.50828 185.097 6.33687 180.58 6.35372 175.989V80.046C6.33548 75.4551 7.50631 70.9376 9.75222 66.9335C11.9981 62.9294 15.2426 59.575 19.1697 57.197L99.9837 9.21602C103.844 6.91269 108.256 5.69659 112.752 5.69659C117.247 5.69659 121.659 6.91269 125.52 9.21602L206.269 57.196C209.557 59.1879 212.372 61.8735 214.516 65.0653C216.659 68.2571 218.081 71.8782 218.681 75.676C215.994 69.964 209.958 68.394 202.919 72.44L126.523 119.756C116.992 125.307 109.969 131.57 109.953 143.059V237.272C109.953 244.149 112.72 248.599 116.992 249.91C115.593 250.167 114.174 250.302 112.752 250.315C108.258 250.312 103.847 249.099 99.9837 246.803V246.803Z" fill="#2F3A3E"/>
<path d="M187.761 185.06L167.675 197.073C167.411 197.179 167.184 197.359 167.021 197.591C166.858 197.823 166.765 198.097 166.755 198.381V203.661C166.755 204.307 167.19 204.565 167.723 204.258L188.117 191.858C188.616 191.483 188.855 190.854 188.73 190.243V185.609C188.714 185.011 188.246 184.753 187.761 185.059V185.06Z" fill="#3AB14A"/>
<path d="M145.017 140.832C145.663 140.509 146.196 140.832 146.212 141.752L146.276 148.76C148.691 147.662 151.386 147.335 153.994 147.823C154.495 147.953 154.704 148.631 154.511 149.438L152.977 155.59C152.86 156.054 152.621 156.478 152.283 156.817C152.164 156.934 152.027 157.032 151.879 157.107C151.696 157.206 151.486 157.241 151.282 157.205C148.739 156.642 146.077 157.069 143.838 158.399C142.233 159.122 140.865 160.283 139.891 161.748C138.917 163.213 138.377 164.924 138.332 166.683C138.332 169.912 139.947 170.8 145.582 170.897C153.026 171.027 156.255 174.272 156.336 181.78C156.248 185.652 155.319 189.459 153.612 192.936C151.906 196.413 149.463 199.477 146.454 201.915L146.584 208.793C146.578 209.214 146.467 209.626 146.261 209.993C146.055 210.36 145.76 210.669 145.404 210.893L141.336 213.233C140.69 213.556 140.156 213.233 140.141 212.329V205.564C136.653 207.017 133.117 207.356 130.856 206.452C130.436 206.29 130.243 205.661 130.42 204.934L131.89 198.718C132.001 198.226 132.253 197.777 132.616 197.426C132.731 197.316 132.862 197.223 133.004 197.151C133.108 197.104 133.22 197.08 133.335 197.08C133.449 197.08 133.562 197.104 133.666 197.151C136.544 197.931 139.614 197.543 142.207 196.07C144.043 195.185 145.602 193.814 146.714 192.106C147.827 190.399 148.452 188.419 148.521 186.382C148.521 182.894 146.599 181.441 142.062 181.408C136.201 181.408 130.759 180.278 130.646 171.72C130.712 168.028 131.595 164.396 133.231 161.085C134.867 157.774 137.215 154.866 140.108 152.57L139.818 145.53C139.817 145.104 139.924 144.685 140.13 144.312C140.336 143.939 140.634 143.625 140.996 143.4L145.017 140.832V140.832Z" fill="white"/>
</g>
<defs>
<clipPath id="clip0_206_118">
<rect width="224" height="256" fill="white" transform="translate(0.753662)"/>
</clipPath>
</defs>
</svg>
