<svg width="256" height="287" viewBox="0 0 256 287" fill="none" xmlns="http://www.w3.org/2000/svg">
<path d="M255.987 84.672C255.985 79.829 254.95 75.55 252.858 71.878C250.803 68.266 247.724 65.24 243.596 62.846C209.515 43.176 175.401 23.566 141.332 3.876C132.147 -1.431 123.241 -1.238 114.124 4.146C100.559 12.154 32.643 51.102 12.405 62.835C4.071 67.665 0.015 75.056 0.013 84.663C0 124.221 0.013 163.777 0 203.336C0.002 208.072 0.993 212.268 2.993 215.886C5.049 219.606 8.17 222.716 12.394 225.164C32.633 236.897 100.558 275.842 114.12 283.852C123.241 289.239 132.147 289.431 141.335 284.122C175.405 264.431 209.521 244.822 243.607 225.152C247.831 222.705 250.952 219.593 253.008 215.876C255.005 212.258 255.998 208.062 256 203.325C256 203.325 256 124.231 255.987 84.672" fill="#A9B9CB"/>
<path d="M141.101 4.13398C131.931 -1.16002 123.04 -0.967015 113.938 4.40298C100.395 12.39 32.59 51.237 12.385 62.94C4.064 67.757 0.015 75.129 0.013 84.711C0 124.166 0.013 163.62 0 203.076C0.002 207.8 0.991 211.985 2.988 215.593C5.041 219.304 8.157 222.406 12.374 224.847C19.0887 228.729 25.8083 232.602 32.533 236.467L219.625 49.375C193.447 34.301 167.262 19.239 141.101 4.13398Z" fill="#7F8B99"/>
<path d="M154.456 125.968L194.295 126.249C194.295 109.65 177.493 69 129.322 69C98.631 69 57.371 88.512 57.371 144.61C57.371 200.707 97.818 219 129.322 219C180.339 219 192.532 183.698 192.532 163.748L154.525 161.575C154.525 161.575 155.542 184.65 129.119 184.65C104.729 184.65 100.659 154.772 100.659 144.61C100.659 129.163 106.152 104.366 129.119 104.366C152.087 104.366 154.456 125.968 154.456 125.968" fill="white"/>
</svg>
