<svg width="257" height="361" viewBox="0 0 257 361" fill="none" xmlns="http://www.w3.org/2000/svg">
<g clip-path="url(#clip0_207_126)">
<path d="M128.598 360.088L24.4157 331.166L1.19873 70.766H256.309L233.068 331.126L128.598 360.088V360.088Z" fill="#264DE4"/>
<path d="M213.171 314.547L233.031 92.057H128.754V337.95L213.171 314.547V314.547Z" fill="#2965F1"/>
<path d="M54.4226 188.636L57.2846 220.573H128.754V188.636H54.4226Z" fill="#EBEBEB"/>
<path d="M48.6707 123.995L51.5737 155.932H128.754V123.995H48.6707V123.995Z" fill="#EBEBEB"/>
<path d="M128.754 271.58L128.614 271.617L93.0457 262.013L90.7717 236.542H58.7117L63.1857 286.688L128.607 304.848L128.754 304.808V271.58Z" fill="#EBEBEB"/>
<path d="M202.881 188.636L208.646 123.995H128.644V155.932H173.646L170.74 188.636H128.644V220.573H167.971L164.263 261.993L128.643 271.607V304.833L194.116 286.688L194.596 281.292L202.102 197.212L202.881 188.636V188.636Z" fill="white"/>
</g>
<defs>
<clipPath id="clip0_207_126">
<rect width="256" height="361" fill="white" transform="translate(0.753662)"/>
</clipPath>
</defs>
</svg>
