<svg width="257" height="256" viewBox="0 0 257 256" fill="none" xmlns="http://www.w3.org/2000/svg">
<g clip-path="url(#clip0_206_115)">
<path d="M228.754 0H28.7537C13.2897 0 0.753662 12.536 0.753662 28V228C0.753662 243.464 13.2897 256 28.7537 256H228.754C244.218 256 256.754 243.464 256.754 228V28C256.754 12.536 244.218 0 228.754 0Z" fill="#092E20"/>
<path d="M187.131 94.198V160.424C187.131 183.244 185.461 194.188 180.453 203.649C175.814 212.741 169.692 218.491 157.078 224.799L130.548 212.184C143.164 206.248 149.286 201.054 153.181 193.074C157.263 184.913 158.563 175.451 158.563 150.593V94.198H187.131V94.198ZM141.682 50.078V182.317C127.027 185.099 116.267 186.212 104.58 186.212C69.7027 186.212 51.5227 170.445 51.5227 140.205C51.5227 111.079 70.8167 92.158 100.683 92.158C105.321 92.158 108.846 92.528 113.113 93.641V50.08H141.683L141.682 50.078ZM103.467 115.16C88.9967 115.16 80.6477 124.065 80.6477 139.647C80.6477 154.861 88.6257 163.208 103.282 163.208C106.434 163.208 109.032 163.023 113.113 162.468V116.643C109.774 115.531 106.992 115.16 103.467 115.16V115.16ZM187.131 50.23V79.542H158.563V50.231H187.131V50.23Z" fill="#FFFFFD"/>
</g>
<defs>
<clipPath id="clip0_206_115">
<rect width="256" height="256" fill="white" transform="translate(0.753662)"/>
</clipPath>
</defs>
</svg>
