<svg width="25" height="24" viewBox="0 0 25 24" fill="none" xmlns="http://www.w3.org/2000/svg">
<path d="M12.301 -1.21649e-05H12.394C14.636 -1.21649e-05 16.734 0.612988 18.531 1.67999L18.476 1.64899C20.3148 2.71556 21.8472 4.23868 22.925 6.07099L22.956 6.12899C24.0456 8.00075 24.6166 10.1292 24.61 12.295C24.61 17.701 21.127 22.295 16.283 23.953L16.196 23.979C16.0876 24.0117 15.973 24.0185 15.8615 23.9988C15.75 23.9792 15.6447 23.9337 15.554 23.866L15.556 23.867C15.4904 23.8084 15.438 23.7365 15.4022 23.6562C15.3663 23.5759 15.3479 23.4889 15.348 23.401V23.387V23.388L15.356 22.162C15.3613 21.3767 15.364 20.6587 15.364 20.008C15.4011 19.591 15.3456 19.171 15.2016 18.7779C15.0576 18.3848 14.8286 18.0284 14.531 17.734C15.1109 17.6783 15.6854 17.5763 16.249 17.429L16.173 17.446C16.7107 17.2987 17.2273 17.0829 17.71 16.804L17.679 16.821C18.1716 16.5516 18.6098 16.1928 18.971 15.763L18.977 15.756C19.3587 15.2659 19.6438 14.7076 19.817 14.111L19.826 14.076C20.0467 13.3359 20.1576 12.5673 20.155 11.795L20.154 11.659V11.666L20.155 11.594C20.1565 10.3954 19.7029 9.24099 18.886 8.36399L18.889 8.36699C19.057 7.92699 19.154 7.41899 19.154 6.88799C19.1548 6.26092 19.0168 5.64145 18.75 5.07399L18.761 5.09999C18.3162 5.0173 17.8567 5.0808 17.451 5.28099L17.463 5.27599C16.9366 5.46827 16.4302 5.71142 15.951 6.00199L15.989 5.97999L15.38 6.36399C14.458 6.09999 13.399 5.94799 12.305 5.94799C11.211 5.94799 10.152 6.09999 9.14798 6.38399L9.22898 6.36399C9.05832 6.24665 8.83132 6.10232 8.54798 5.93099C8.13994 5.7002 7.71467 5.50127 7.27598 5.33599L7.20998 5.31399C6.78805 5.09437 6.30574 5.0192 5.83698 5.09999L5.84998 5.09799C5.5891 5.65784 5.45492 6.26834 5.45698 6.88599C5.45698 7.41699 5.55398 7.92599 5.73198 8.39499L5.72198 8.36599C4.88841 9.26158 4.43491 10.4457 4.45698 11.669V11.665L4.45598 11.795C4.45598 12.604 4.57598 13.386 4.79998 14.122L4.78498 14.065C4.97398 14.708 5.26098 15.267 5.63498 15.758L5.62598 15.745C5.97654 16.1767 6.40664 16.5372 6.89298 16.807L6.91498 16.818C7.34698 17.07 7.84798 17.283 8.37498 17.432L8.42098 17.443C8.88698 17.568 9.44498 17.67 10.016 17.727L10.062 17.731C9.63098 18.159 9.34398 18.731 9.27798 19.369L9.27698 19.381C9.05437 19.4876 8.81966 19.5668 8.57798 19.617L8.55698 19.621C8.30098 19.672 8.00798 19.701 7.70698 19.701H7.64098H7.64398C7.26531 19.6938 6.89762 19.5725 6.58898 19.353L6.59498 19.357C6.22783 19.1022 5.92598 18.7644 5.71398 18.371L5.70698 18.356C5.51454 18.0275 5.25238 17.7452 4.93898 17.529L4.92998 17.523C4.69726 17.3491 4.43407 17.2202 4.15398 17.143L4.13798 17.139L3.81798 17.091C3.65738 17.0791 3.49621 17.1045 3.34698 17.165L3.35398 17.162C3.26865 17.21 3.24198 17.2713 3.27398 17.346C3.31298 17.432 3.36098 17.506 3.41898 17.571L3.41798 17.57C3.47898 17.642 3.54798 17.705 3.62298 17.76L3.62598 17.762L3.73798 17.842C4.02098 17.99 4.25398 18.196 4.43098 18.445L4.43498 18.451C4.62598 18.688 4.79398 18.956 4.92898 19.243L4.93898 19.267L5.09898 19.635C5.23398 20.037 5.47898 20.373 5.79898 20.616L5.80398 20.62C6.10398 20.854 6.46598 21.022 6.86098 21.098L6.87698 21.1C7.20698 21.164 7.59098 21.204 7.98298 21.212H7.98998C8.03498 21.214 8.08698 21.214 8.13998 21.214C8.40098 21.214 8.65698 21.193 8.90698 21.152L8.87998 21.156L9.24798 21.092C9.24798 21.498 9.25065 21.9707 9.25598 22.51C9.26131 23.0493 9.26398 23.3403 9.26398 23.383V23.397C9.26398 23.582 9.18398 23.748 9.05598 23.863H9.05498C8.964 23.9314 8.85804 23.9771 8.74589 23.9964C8.63373 24.0157 8.51859 24.008 8.40998 23.974L8.41498 23.975C3.48598 22.286 0.00598145 17.692 0.00598145 12.285C0.00598145 10.017 0.617981 7.89199 1.68698 6.06599L1.65498 6.12399C2.72156 4.28516 4.24468 2.75274 6.07698 1.67499L6.13498 1.64399C7.97503 0.560642 10.0727 -0.00755953 12.208 -0.00101216H12.306H12.301V-1.21649e-05ZM4.66098 17.666C4.69298 17.5913 4.65565 17.5273 4.54898 17.474C4.44231 17.442 4.37298 17.4527 4.34098 17.506C4.30898 17.5807 4.34631 17.6447 4.45298 17.698C4.54898 17.762 4.61831 17.7513 4.66098 17.666ZM5.15798 18.211C5.23265 18.1577 5.22198 18.0723 5.12598 17.955C5.01931 17.859 4.93398 17.843 4.86998 17.907C4.79531 17.9603 4.80598 18.0457 4.90198 18.163C5.00798 18.2677 5.09331 18.2833 5.15798 18.21V18.211ZM5.63798 18.931C5.73398 18.8563 5.73398 18.755 5.63798 18.627C5.55265 18.4883 5.46198 18.4563 5.36598 18.531C5.26998 18.5843 5.26998 18.6803 5.36598 18.819C5.46198 18.9577 5.55265 18.995 5.63798 18.931ZM6.30998 19.604C6.39531 19.5187 6.37398 19.4173 6.24598 19.3C6.11798 19.172 6.01131 19.156 5.92598 19.252C5.82998 19.3373 5.85131 19.4387 5.98998 19.556C6.11798 19.684 6.22465 19.6987 6.30998 19.6V19.604ZM7.22298 20.004C7.25498 19.8867 7.18565 19.8013 7.01498 19.748C6.85498 19.7053 6.75365 19.7427 6.71098 19.86C6.66831 19.9773 6.73765 20.0573 6.91898 20.1C7.07898 20.1647 7.18031 20.1327 7.22298 20.004V20.004ZM8.23198 20.084C8.23198 19.9453 8.14131 19.8867 7.95998 19.908C7.78931 19.908 7.70398 19.9667 7.70398 20.084C7.70398 20.2227 7.79465 20.2813 7.97598 20.26C8.14665 20.2607 8.23198 20.2023 8.23198 20.085V20.084ZM9.16098 19.924C9.13965 19.8067 9.04365 19.7587 8.87298 19.78C8.70232 19.812 8.62765 19.892 8.64898 20.02C8.67032 20.148 8.76632 20.1907 8.93698 20.148C9.10765 20.1053 9.18265 20.0307 9.16198 19.924H9.16098Z" fill="white"/>
</svg>
