<svg width="257" height="236" viewBox="0 0 257 236" fill="none" xmlns="http://www.w3.org/2000/svg">
<g clip-path="url(#clip0_205_102)">
<path d="M128.829 236.075L175.933 91.105H81.7236L128.828 236.075H128.829Z" fill="#E24329"/>
<path d="M128.829 236.074L81.7237 91.104H15.7097L128.829 236.074Z" fill="#FC6D26"/>
<path d="M15.7096 91.104L1.39561 135.16C0.759166 137.119 0.759078 139.228 1.39536 141.187C2.03164 143.146 3.27163 144.852 4.93761 146.063L128.829 236.075L15.7086 91.105L15.7096 91.104Z" fill="#FCA326"/>
<path d="M15.7097 91.105H81.7237L53.3547 3.79C51.8947 -0.703001 45.5387 -0.702001 44.0797 3.79L15.7097 91.105Z" fill="#E24329"/>
<path d="M128.829 236.074L175.933 91.104H241.948L128.828 236.074H128.829Z" fill="#FC6D26"/>
<path d="M241.948 91.104L256.262 135.16C256.898 137.119 256.898 139.228 256.261 141.187C255.625 143.146 254.385 144.853 252.719 146.063L128.829 236.075L241.948 91.105V91.104Z" fill="#FCA326"/>
<path d="M241.948 91.105H175.933L204.303 3.79C205.763 -0.703001 212.119 -0.702001 213.578 3.79L241.948 91.105Z" fill="#E24329"/>
</g>
<defs>
<clipPath id="clip0_205_102">
<rect width="256" height="236" fill="white" transform="translate(0.753662)"/>
</clipPath>
</defs>
</svg>
