<svg width="26" height="28" viewBox="0 0 26 28" fill="none" xmlns="http://www.w3.org/2000/svg">
<path d="M2.90203 25.201L0.655029 0H25.345L23.095 25.197L12.985 28L2.90203 25.201Z" fill="#E44F26"/>
<path d="M13 25.858L21.17 23.593L23.092 2.061H13V25.858Z" fill="#F1662A"/>
<path d="M13 11.407H8.91L8.628 8.242H13V5.151H5.25L5.324 5.981L6.083 14.498H13V11.407V11.407Z" fill="#EBEBEB"/>
<path d="M12.9999 19.434L12.9859 19.438L9.54395 18.509L9.32395 16.044H6.22095L6.65395 20.896L12.9859 22.654L12.9999 22.65V19.434Z" fill="#EBEBEB"/>
<path d="M12.989 11.407V14.498H16.795L16.437 18.507L12.989 19.437V22.653L19.326 20.896L19.372 20.374L20.098 12.237L20.174 11.407H12.989V11.407Z" fill="white"/>
<path d="M12.989 5.151V8.242H20.455L20.517 7.548L20.658 5.981L20.732 5.151H12.989V5.151Z" fill="white"/>
</svg>
