<svg width="343" height="400" viewBox="0 0 343 400" fill="none" xmlns="http://www.w3.org/2000/svg">
<path d="M123.681 113.862L124.779 139.115L107.212 172.052L79.7644 225.85L74.2748 270.865L94.0373 334.544L139.052 359.796H207.123L270.802 311.487L299.348 235.731L233.473 155.583L214.808 110.569L123.681 113.862Z" fill="#ECEFF1"/>
<path d="M279.586 176.444C262.019 151.192 247.746 135.821 240.061 103.981C232.375 72.1417 242.257 80.925 235.669 53.4771C232.375 39.2042 226.886 29.323 221.396 21.6375C214.809 13.9521 207.123 9.56046 202.732 8.46254C192.85 2.97296 169.794 -5.81038 141.248 9.56046C111.605 24.9313 114.898 57.8688 120.388 124.842C120.388 129.233 119.29 134.723 117.094 139.115C112.703 148.996 105.017 157.779 98.4296 165.465C90.7442 176.444 83.0588 187.423 77.5692 199.5C64.3942 224.752 52.3171 256.592 55.6109 268.669C61.1004 267.571 130.269 372.971 130.269 375.167C134.661 374.069 153.325 374.069 169.794 374.069C192.85 372.971 206.025 371.873 224.69 376.265C224.69 372.971 223.592 369.677 223.592 366.383C223.592 359.796 224.69 354.306 225.788 346.621C226.886 341.131 227.984 335.642 229.082 329.054C218.103 338.935 198.34 349.915 179.675 353.208C163.207 356.502 135.759 351.013 122.584 334.544C123.682 334.544 125.878 334.544 126.975 333.446C130.269 332.348 133.563 331.25 134.661 329.054C137.955 323.565 135.759 318.075 133.563 314.781C131.367 311.488 114.898 299.41 107.213 292.823C99.5275 286.235 95.1359 282.942 90.7442 278.55L81.9609 269.767C79.765 267.571 78.6671 265.375 77.5692 264.277C75.3734 258.788 74.2755 252.2 75.3734 243.417C76.4713 231.34 80.863 221.458 86.3525 210.479C88.5484 206.088 94.038 197.304 94.038 197.304C94.038 197.304 75.3734 243.417 85.2546 257.69C85.2546 257.69 86.3525 243.417 90.7442 229.144C94.038 219.263 99.5275 204.99 106.115 197.304C112.703 189.619 129.171 161.073 130.269 143.506C130.269 135.821 131.367 128.135 131.367 122.646C126.975 118.254 203.83 107.275 208.221 119.352C209.319 123.744 224.69 163.269 233.473 184.129C237.865 194.01 243.355 202.794 246.648 213.773C249.942 225.85 252.138 242.319 252.138 258.788C252.138 262.081 252.138 267.571 251.04 273.06C253.236 273.06 296.055 226.948 245.55 188.521C245.55 188.521 276.292 202.794 277.39 231.34C278.488 254.396 268.607 273.06 266.411 276.354C267.509 276.354 289.467 286.235 290.565 286.235C294.957 286.235 303.74 282.942 303.74 282.942C304.838 279.648 308.132 270.865 308.132 267.571C315.817 242.319 297.153 201.696 279.586 176.444V176.444Z" fill="#263238"/>
<path d="M140.15 103.981C148.033 103.981 154.423 94.1501 154.423 82.0228C154.423 69.8955 148.033 60.0645 140.15 60.0645C132.268 60.0645 125.878 69.8955 125.878 82.0228C125.878 94.1501 132.268 103.981 140.15 103.981Z" fill="#ECEFF1"/>
<path d="M189.556 106.177C199.865 106.177 208.221 94.8713 208.221 80.9249C208.221 66.9786 199.865 55.6729 189.556 55.6729C179.248 55.6729 170.892 66.9786 170.892 80.9249C170.892 94.8713 179.248 106.177 189.556 106.177Z" fill="#ECEFF1"/>
<path d="M148.131 83.5233C147.219 76.3044 143.065 70.8838 138.854 71.4161C134.643 71.9484 131.969 78.232 132.882 85.4509C133.794 92.6698 137.948 98.0904 142.159 97.5581C146.37 97.0258 149.044 90.7422 148.131 83.5233Z" fill="#212121"/>
<path d="M188.458 99.5896C194.522 99.5896 199.437 93.1994 199.437 85.3167C199.437 77.434 194.522 71.0438 188.458 71.0438C182.395 71.0438 177.479 77.434 177.479 85.3167C177.479 93.1994 182.395 99.5896 188.458 99.5896Z" fill="#212121"/>
<path d="M334.481 326.858C330.09 324.662 322.404 321.369 315.817 311.488C312.523 305.998 313.621 290.627 308.131 284.04C304.838 279.648 300.446 281.844 299.348 281.844C289.467 284.04 266.41 299.41 251.04 281.844C248.844 279.648 245.55 276.354 240.06 276.354C234.571 276.354 232.375 278.55 230.179 282.942C227.983 287.333 227.983 290.627 227.983 301.606C227.983 310.39 227.983 320.271 226.885 327.956C224.69 346.621 221.396 357.6 221.396 368.579C221.396 380.656 224.69 388.342 229.081 391.635C232.375 394.929 237.865 397.125 249.942 397.125C262.019 397.125 269.704 392.733 277.39 385.048C282.879 379.558 287.271 377.363 302.642 366.383C314.719 358.698 333.383 348.817 336.677 345.523C338.873 343.327 342.167 342.229 342.167 335.642C342.167 330.152 337.775 327.956 334.481 326.858V326.858Z" fill="#FFC107"/>
<path d="M113.8 330.152C102.821 312.585 101.723 309.292 94.0374 298.312C87.4499 287.333 73.177 266.473 64.3937 266.473C57.8062 266.473 54.5124 269.767 50.1208 274.158C45.7291 278.55 41.3374 288.431 33.652 293.921C27.0645 299.41 8.39994 298.312 4.00827 304.9C-0.383393 311.487 8.39995 321.369 8.39995 337.837C8.39995 344.425 2.91036 348.817 1.81244 353.208C0.714526 358.698 -0.383391 361.992 1.81244 366.383C6.20411 372.971 11.6937 375.167 49.0229 382.852C68.7854 387.244 87.4499 398.223 99.527 399.321C111.604 400.419 132.465 399.321 132.465 369.677C133.562 352.11 123.681 347.719 113.8 330.152Z" fill="#FFC107"/>
<path d="M134.66 131.429C128.073 127.037 122.583 122.646 122.583 116.058C122.583 109.471 126.975 107.275 133.563 101.785C134.66 100.688 146.738 89.7083 158.815 89.7083C170.892 89.7083 185.165 97.3937 190.654 99.5896C200.535 101.785 210.417 103.981 209.319 111.667C208.221 122.646 207.123 124.842 196.144 130.331C188.458 132.527 174.185 144.604 164.304 144.604C159.913 144.604 153.325 144.604 148.933 143.506C145.64 142.408 140.15 136.919 134.66 131.429Z" fill="#FFC107"/>
<path d="M132.464 122.646C134.66 124.842 137.954 127.037 141.248 128.135C143.443 129.233 146.737 130.331 146.737 130.331H156.618C162.108 130.331 169.793 128.135 177.479 123.744C185.164 120.45 186.262 118.254 191.752 116.058C197.241 112.765 202.731 109.471 200.535 108.373C198.339 107.275 196.143 108.373 188.458 112.765C181.871 117.156 176.381 119.352 169.793 122.646C166.5 123.744 162.108 125.94 158.814 125.94H148.933C145.639 125.94 143.443 124.842 140.15 123.744C137.954 122.646 136.856 121.548 135.758 121.548C133.562 120.45 129.171 116.058 126.975 114.96C126.975 114.96 124.779 114.96 125.877 116.058L132.464 122.646Z" fill="#634703"/>
<path d="M165.402 98.4917C166.5 100.688 168.696 100.688 169.794 101.785C170.892 102.883 171.99 102.883 171.99 102.883C173.088 101.785 171.99 99.5896 170.892 99.5896C170.892 97.3937 165.402 97.3937 165.402 98.4917V98.4917Z" fill="#634703"/>
<path d="M147.835 100.687C147.835 101.785 150.03 102.883 150.03 101.785C151.128 100.687 152.226 99.5896 153.324 99.5896C155.52 98.4916 154.422 97.3937 151.128 97.3937C148.933 98.4916 148.933 99.5896 147.835 100.687V100.687Z" fill="#634703"/>
</svg>
