<svg width="257" height="193" viewBox="0 0 257 193" fill="none" xmlns="http://www.w3.org/2000/svg">
<g clip-path="url(#clip0_209_143)">
<path d="M58.9357 192.05V93.14L28.2607 65.077L0.753662 49.504V174.595C0.753662 184.253 8.57866 192.05 18.2087 192.05H58.9357V192.05Z" fill="#4285F4"/>
<path d="M198.572 192.05H239.299C248.958 192.05 256.754 184.224 256.754 174.595V49.505L225.598 67.342L198.572 93.14V192.05V192.05Z" fill="#34A853"/>
<path d="M58.9357 93.14L54.7617 54.493L58.9357 17.504L128.754 69.868L198.572 17.504L203.242 52.496L198.572 93.14L128.754 145.504L58.9357 93.14Z" fill="#EA4335"/>
<path d="M198.572 17.504V93.14L256.754 49.504V26.231C256.754 4.646 232.114 -7.659 214.864 5.286L198.572 17.504Z" fill="#FBBC04"/>
<path d="M0.753662 49.504L27.5127 69.574L58.9357 93.14V17.504L42.6437 5.286C25.3637 -7.66 0.753662 4.646 0.753662 26.23V49.503V49.504Z" fill="#C5221F"/>
</g>
<defs>
<clipPath id="clip0_209_143">
<rect width="256" height="193" fill="white" transform="translate(0.753662)"/>
</clipPath>
</defs>
</svg>
