<svg width="257" height="291" viewBox="0 0 257 291" fill="none" xmlns="http://www.w3.org/2000/svg">
<g clip-path="url(#clip0_206_123)">
<path d="M2.80766 218.187C4.12766 220.534 6.03466 222.295 8.38266 223.615L121.345 288.752C126.04 291.539 131.761 291.539 136.309 288.752L249.272 223.615C253.967 220.975 256.754 215.986 256.754 210.558V80.284C256.754 74.856 253.967 69.868 249.272 67.228L136.309 2.08999C131.615 -0.698007 125.893 -0.698007 121.345 2.08999L8.38366 67.228C3.54066 69.868 0.753662 74.856 0.753662 80.284V210.704C0.753662 213.346 1.34066 215.84 2.80766 218.187Z" fill="#009639"/>
<path d="M92.5906 195.154C92.5987 197.064 92.2285 198.956 91.5014 200.722C90.7744 202.487 89.7049 204.092 88.3546 205.442C87.0043 206.792 85.4 207.862 83.6342 208.589C81.8684 209.316 79.9762 209.686 78.0666 209.678C76.1571 209.686 74.2649 209.316 72.4993 208.589C70.7336 207.861 69.1294 206.792 67.7792 205.442C66.429 204.091 65.3596 202.487 64.6326 200.721C63.9056 198.956 63.5355 197.063 63.5436 195.154V95.542C63.5436 87.766 70.4386 81.458 79.9736 81.458C86.8696 81.458 94.9386 84.245 99.7796 90.26L104.18 95.542L164.917 168.16V95.835C164.909 93.9254 165.279 92.0331 166.006 90.2674C166.733 88.5016 167.802 86.8973 169.153 85.547C170.503 84.1967 172.107 83.1272 173.873 82.4001C175.639 81.6731 177.531 81.3029 179.441 81.311C181.35 81.303 183.242 81.6733 185.008 82.4004C186.774 83.1275 188.378 84.197 189.728 85.5473C191.078 86.8976 192.148 88.5019 192.875 90.2676C193.602 92.0333 193.972 93.9255 193.964 95.835V195.448C193.964 203.223 187.069 209.531 177.534 209.531C170.638 209.531 162.569 206.744 157.728 200.729L92.5906 122.975V195.155V195.154Z" fill="white"/>
</g>
<defs>
<clipPath id="clip0_206_123">
<rect width="256" height="291" fill="white" transform="translate(0.753662)"/>
</clipPath>
</defs>
</svg>
