<svg width="177" height="239" viewBox="0 0 177 239" fill="none" xmlns="http://www.w3.org/2000/svg">
<path fill-rule="evenodd" clip-rule="evenodd" d="M5.52547 233.898C1.32395 233.701 3.0136 226.556 3.31511 223.933C6.64195 214.349 5.85989 203.893 7.16779 193.848C7.98278 184.471 9.03033 175.123 9.91117 165.753C11.641 146.733 24.0654 108.012 38.2434 101.785C40.0287 94.167 47.4058 87.055 56.7381 87.055C63.1036 79.73 70.7658 74.575 80.593 75.616C84.6535 75.795 88.5926 79.983 92.4834 80.791C94.6618 81.083 113.998 80.332 117.871 82.568C120.569 83.915 123.005 86.403 122.211 89.572C120.946 93.41 124.879 89.257 133.084 93.354C149.816 103.123 139.818 116.192 139.375 116.597C149.816 130.72 158.942 142.178 163.165 159.44C165.901 172.257 165.593 185.487 167.886 198.369C168.696 202.835 169.938 207.149 171.282 211.487C172.739 217.163 173.447 231.312 174.25 231.438C175.712 231.792 173.404 234.711 171.855 234.713C128.891 241.641 85.2504 235 42.0569 233.915C29.8836 233.504 17.6978 233.409 5.52547 233.898Z" fill="#F6F6F6"/>
<path fill-rule="evenodd" clip-rule="evenodd" d="M70.6434 117.844C70.6238 117.652 70.3583 117.653 70.3378 117.844L70.0352 120.69C69.6658 124.167 69.3108 127.637 69.0525 131.13C68.7315 135.486 68.5174 139.84 68.4135 144.206C68.0523 159.41 67.9813 174.622 67.9504 189.829C65.8347 189.687 63.7191 189.55 61.6023 189.417C60.1658 189.327 58.7303 189.24 57.2938 189.155L53.6305 188.939L52.123 188.849C51.1042 188.788 49.9466 188.539 49.2345 189.416C48.9484 189.767 48.8054 190.224 49.0719 190.641C49.6852 191.603 50.6267 191.569 51.6928 191.611C52.6982 191.65 53.7025 191.689 54.7079 191.727C56.8627 191.808 59.0164 191.885 61.1712 191.944C63.433 192.005 65.6927 192.055 67.9535 192.093C67.9761 198.513 68.2499 204.925 68.5452 211.338L68.679 214.224C69.0402 222.028 69.4291 229.839 69.9817 237.633C70.027 238.271 70.9552 238.27 71.0004 237.633C71.623 228.856 72.0336 220.06 72.4401 211.271C72.7354 204.899 72.9072 198.525 72.9885 192.15C73.288 192.151 73.5864 192.156 73.8848 192.157C82.3702 192.192 90.8524 192.228 99.3368 192.151C99.3224 192.167 99.309 192.184 99.2987 192.205C98.6854 193.614 98.6267 195.412 98.6422 196.925C98.6586 198.659 98.8994 200.372 99.31 202.059C100.783 208.101 104.579 213.513 108.904 217.987L109.045 218.132C110.065 219.18 111.235 220.233 111.862 221.568C112.501 222.93 112.723 224.524 113.039 225.989L113.076 226.157L114.31 231.7C114.703 233.461 114.814 236.028 116.247 237.298C117.585 238.484 119.357 237.865 119.986 236.339C120.478 235.148 119.988 233.84 119.697 232.649L117.416 223.329C117.041 221.809 116.632 220.279 115.823 218.914C114.995 217.515 113.78 216.501 112.541 215.464C110.194 213.5 108.039 211.251 106.217 208.816C104.395 206.382 102.84 203.699 101.748 200.878C101.201 199.466 100.754 197.999 100.444 196.52C100.151 195.116 100.153 193.662 99.8389 192.274C99.8173 192.178 99.734 192.112 99.6393 192.083C99.6619 192.021 99.627 191.937 99.5374 191.932L92.5987 191.498C86.4307 191.112 80.2627 190.715 74.1009 190.262L73.0122 190.185C73.0966 181.679 73.0245 173.172 72.8661 164.663C72.722 156.86 72.7189 149.055 72.4802 141.253C72.3608 137.381 72.1056 133.518 71.8206 129.654C71.5294 125.702 71.0632 121.784 70.6434 117.844ZM135.797 163.086C135.871 162.653 135.31 162.385 135.052 162.781C132.097 167.309 130.672 172.226 130.072 177.525C129.541 182.201 129.698 186.945 129.962 191.633C130.244 196.633 130.572 201.633 130.905 206.631L131.415 214.295L132.697 233.508C132.789 234.883 133.11 236.132 134.327 236.771C134.481 236.897 134.642 237.009 134.829 237.106C135.486 237.448 136.359 237.275 136.739 236.619L136.586 236.717C136.454 236.798 136.603 236.684 137.034 236.376L137.4 235.916C137.666 235.528 137.835 235.146 137.904 234.684C138.01 233.966 137.872 233.179 137.824 232.458L136.984 219.859C136.331 210.065 135.568 200.273 134.993 190.473C134.725 185.906 134.538 181.334 134.665 176.759C134.791 172.209 135.029 167.582 135.797 163.086ZM110.236 78.746L110.072 78.719C104.203 77.772 97.822 77.949 92.4588 80.699C92.4145 80.722 92.4341 80.793 92.4845 80.791L94.2102 80.724C99.6753 80.516 105.124 80.393 110.498 81.641L111.048 81.77C112.983 82.229 115.004 82.791 116.558 84.033C118.044 85.221 118.784 87.053 119.495 88.74L119.59 88.963C120.312 90.629 121.226 92.209 122.808 93.25C124.857 94.599 127.321 94.434 129.67 94.617C133.807 94.941 137.189 97.855 138.872 101.422C139.891 103.581 140.325 106.002 140.411 108.364C140.455 109.566 140.462 110.816 140.297 112.01C140.244 112.392 139.759 113.783 139.511 113.75C138.961 113.676 138.458 113.955 138.286 114.382C136.927 113.106 135.529 111.866 134.085 110.671C130.488 107.692 126.612 104.993 122.531 102.673C119.417 100.902 116.131 99.148 112.729 97.822C112.999 97.816 113.265 97.868 113.522 97.998C113.635 98.055 113.747 97.918 113.658 97.827C112.586 96.731 111.303 96.575 110.009 96.867C109.732 96.782 109.456 96.699 109.179 96.621C109.041 96.582 108.972 96.767 109.085 96.838L109.402 97.036C107.991 97.495 106.605 98.399 105.508 99.112C102.356 101.16 99.5817 103.663 96.7693 106.12L96.2579 106.565C93.7821 108.714 91.2445 110.802 88.4311 112.526C86.9596 113.428 85.413 114.263 83.7913 114.883C82.4 115.416 80.1351 115.752 79.4827 117.181C78.9044 117.865 79.1462 118.738 79.8244 119.198C80.9686 120.422 83.2562 119.631 84.6196 119.122C86.263 118.507 87.8549 117.768 89.3737 116.902C92.3209 115.22 95.0385 113.128 97.571 110.903C100.216 108.579 102.709 106.11 105.281 103.713C106.396 102.675 107.484 101.612 108.6 100.575L109.161 100.058C109.73 99.539 110.542 98.73 111.41 98.24C113.044 99.188 114.704 100.096 116.324 101.069C118.585 102.426 120.78 103.881 122.94 105.384C127.1 108.278 131.042 111.519 134.702 114.993C141.413 121.363 147.131 128.638 152.126 136.341L152.506 136.928C155.344 141.337 158.029 145.888 159.932 150.759C162.026 156.12 163.045 161.758 163.598 167.448C164.147 173.098 164.332 178.776 164.946 184.421C165.575 190.21 166.815 195.871 168.226 201.522L168.562 202.862C169.839 207.922 171.156 212.983 171.812 218.163C172.162 220.93 172.373 223.735 172.325 226.524C172.277 229.33 171.824 232.074 171.458 234.85C171.318 235.913 172.394 236.801 173.358 236.942C174.466 237.103 175.417 236.416 175.762 235.416C176.835 232.297 177.03 228.849 176.997 225.576C176.963 222.252 176.526 218.95 175.912 215.684C174.705 209.26 172.842 202.968 171.283 196.62C169.909 191.025 168.987 185.421 168.49 179.689C167.974 173.743 167.665 167.776 166.724 161.872C165.795 156.044 164.047 150.477 161.411 145.163C159.011 140.324 156.019 135.77 152.883 131.355C149.074 125.995 144.89 120.894 140.214 116.246C140.634 116.229 141.065 116.097 141.461 115.857C142.673 115.122 143.238 113.684 143.411 112.372C143.817 109.302 143.719 106.096 142.907 103.094C141.597 98.252 138.196 93.949 133.268 92.204C131.999 91.754 130.65 91.59 129.306 91.558C128.03 91.527 126.637 91.689 125.406 91.296C123.447 90.67 122.607 88.426 121.871 86.726L121.837 86.648C120.894 84.481 119.762 82.623 117.719 81.27C115.539 79.827 112.808 79.17 110.236 78.746ZM54.4733 87.316C52.7105 86.721 50.5053 87.261 48.7807 87.78C46.8595 88.359 45.0834 89.426 43.5615 90.693C41.9551 92.028 40.6287 93.678 39.6903 95.52L39.6007 95.698C38.7446 97.407 37.7691 99.753 38.2013 101.631C38.2136 101.684 38.227 101.736 38.2434 101.785C34.7448 103.46 31.5136 105.557 28.6992 108.216C25.4228 111.311 22.6475 114.833 20.3003 118.638C10.9753 133.751 9.33397 151.902 8.23188 169.137L7.95712 173.507C7.35925 182.944 6.65952 192.358 4.84226 201.665L4.70952 202.336C2.76568 212.08 -0.0157836 221.898 0.26617 231.894C0.35055 234.889 4.90298 234.869 5.03572 231.894C5.53274 220.698 8.21952 209.888 10.0399 198.868C13.2422 179.478 11.6369 159.489 16.1749 140.293C17.9552 132.76 20.7129 125.453 24.652 118.729C26.5969 115.407 28.8227 112.198 31.4303 109.332C33.6735 106.866 36.0053 104.493 38.6273 102.42C39.4649 103.236 41.1391 102.82 41.5765 101.631C41.8769 100.814 41.7895 99.858 41.9819 99.002C42.1609 98.208 42.4079 97.42 42.7362 96.672C43.3917 95.181 44.3538 93.749 45.4641 92.542C46.6629 91.237 48.0418 90.154 49.5843 89.259C51.1371 88.358 52.8361 88.089 54.4733 87.43C54.5288 87.408 54.534 87.336 54.4733 87.316ZM47.622 190.94C47.6189 190.861 47.5232 190.824 47.4645 190.877C46.8471 191.43 46.4726 192.224 46.0177 192.904C45.4929 193.688 44.9424 194.457 44.3641 195.205C43.2064 196.705 41.9171 198.119 40.6184 199.504C39.4104 200.792 38.122 202.025 36.7863 203.188C35.3385 204.448 33.7168 205.573 32.4017 206.968C29.6572 209.88 29.2137 213.876 28.6354 217.628L28.5716 218.034C28.2187 220.26 27.9027 222.493 27.6177 224.729C27.4788 225.817 27.3399 226.905 27.2277 227.996L27.1927 228.341C27.0919 229.409 27.0651 230.491 27.6949 231.424C28.3699 232.422 29.9052 232.772 30.817 231.815C32.3852 230.171 32.0909 227.252 32.2946 225.137C32.4634 223.389 32.6548 221.642 32.8688 219.898L32.9779 219.027C33.23 217.043 33.4348 215.02 33.901 213.07C34.3126 211.354 35.0967 210.058 36.384 208.815C37.6795 207.562 39.0265 206.393 40.2233 205.044C41.4921 203.613 42.6364 202.079 43.6674 200.477C44.5493 199.108 45.2573 197.617 45.9045 196.129L46.0126 195.881C46.6382 194.429 47.6704 192.539 47.622 190.94ZM24.9875 128.582C24.9741 128.38 24.6665 128.376 24.6613 128.582C24.6232 130.324 24.5852 132.065 24.5481 133.807C24.2487 147.841 24.4339 161.908 22.985 175.894C22.3018 182.488 21.0443 188.986 19.5892 195.456C18.8442 198.767 18.0622 202.07 17.3202 205.381C16.5968 208.608 15.8209 211.851 15.2467 215.108C14.6828 218.309 14.1776 221.535 13.9512 224.777L13.9234 225.2C13.8257 226.771 13.3595 229.081 14.2496 230.473C15.2128 231.981 17.0589 232.008 18.092 230.569C19.0613 229.217 18.8206 226.813 18.9914 225.2C19.1653 223.558 19.3495 221.913 19.5594 220.274C19.9669 217.077 20.5051 213.887 21.0638 210.712C22.2287 204.099 23.9173 197.57 25.1645 190.968C26.4426 184.203 27.3502 177.389 27.3893 170.501C27.4273 163.555 26.671 156.622 26.2892 149.691C25.9013 142.651 25.4598 135.617 24.9875 128.582ZM93.1822 84.931C92.7942 83.662 91.4266 82.869 90.092 83.225C88.8695 83.552 87.86 84.995 88.3375 86.23C88.8592 87.577 89.7709 88.725 90.5396 89.95C91.2496 91.081 92.2859 91.972 93.0093 93.083L92.2118 93.919C91.8136 94.335 91.4133 94.75 91.0089 95.157L89.6186 96.557C88.5361 97.645 87.4464 98.727 86.3268 99.777C83.0329 102.866 79.6865 105.853 75.9974 108.499C75.1577 109.1 74.3108 109.699 73.4413 110.259L73.1161 110.468C72.5193 110.848 71.8535 111.222 71.1322 111.158C69.3808 111.001 67.7971 109.192 66.5931 108.066L66.5304 108.008C63.5462 105.248 60.7832 102.23 58.3681 98.985C57.832 98.264 57.3123 97.531 56.8061 96.789C57.974 95.463 57.6951 92.874 57.76 91.266C57.8052 90.135 57.8083 89.004 57.8155 87.872L57.8186 87.644C57.832 86.911 57.8659 86.209 57.3772 85.606C57.3494 85.571 57.2897 85.572 57.2537 85.59C56.5838 85.932 56.378 86.503 56.0919 87.144L56.0621 87.21C55.7143 87.979 55.3808 88.756 55.0444 89.529C54.6914 90.339 54.3673 91.161 54.04 91.98C53.8877 92.362 53.7416 92.744 53.5996 93.129C53.5121 93.375 53.4226 93.62 53.331 93.864L53.3084 93.883C53.187 93.983 53.0841 94.089 52.9945 94.199C52.621 94.38 52.3246 94.712 52.1847 95.198C51.8811 96.257 52.5088 97.121 53.0686 97.961C55.3428 101.377 57.9349 104.631 60.8172 107.584C62.2475 109.05 63.754 110.451 65.3212 111.78L65.595 112.011C67.0027 113.187 68.5318 114.301 70.4119 114.577C72.6129 114.898 74.4034 113.834 76.089 112.609L76.2567 112.486C77.8538 111.311 79.4189 110.094 80.9347 108.821C84.0259 106.227 86.9668 103.441 89.5765 100.385C92.1151 97.412 94.6249 94.088 96.19 90.511C96.2847 90.293 96.0346 90.065 95.8381 90.247C95.0735 90.954 94.3378 91.7 93.6113 92.455C93.5907 91.343 93.8016 90.222 93.6843 89.103C93.5413 87.743 93.5825 86.241 93.1822 84.931Z" fill="#6D9886"/>
<path fill-rule="evenodd" clip-rule="evenodd" d="M37.554 56.981C38.9174 47.4185 42.0354 38.1343 42.483 28.4287C42.7495 24.2754 43.016 20.122 43.2815 15.9683C43.3824 13.3742 46.8492 12.499 48.1735 14.7972C51.1824 11.5526 56.5714 12.0304 60.6824 12.1289C84.8851 12.9627 107.885 28.871 116.193 51.052C116.393 51.581 116.333 52.144 116.107 52.647C119.979 65.202 106.284 73.285 96.9432 78.883C93.1543 82.776 88.7007 86.01 83.6719 88.225C77.8867 90.87 71.447 92.346 65.0547 92.487C63.6521 92.518 62.8094 91.415 62.7075 90.274C60.668 89.812 57.1785 90.345 56.1001 88.314C43.8032 83.121 35.7902 69.96 37.554 56.981Z" fill="#F6F6F6"/>
<path fill-rule="evenodd" clip-rule="evenodd" d="M43.3083 23.0697C43.3433 22.7596 42.8823 22.7501 42.7876 23.0012C42.0087 25.0655 41.1998 27.1156 40.5824 29.232C39.9876 31.2718 39.5585 33.3578 39.1243 35.4349C38.405 38.8821 37.7855 42.3546 37.2731 45.8382C36.1792 45.0072 34.7468 44.9315 33.3988 45.5783C32.7659 45.8816 32.5241 46.6836 32.6764 47.3059C32.7978 47.805 32.947 48.302 33.1251 48.788C32.7433 49.117 32.4191 49.522 32.1835 49.988C31.562 51.214 31.7626 52.5 32.3193 53.67C32.2771 53.739 32.2349 53.81 32.1948 53.884C31.3891 55.405 31.8203 56.768 32.4099 58.253C32.8503 59.363 32.6044 60.614 33.5552 61.453C33.8865 62.485 34.3825 63.446 35.1039 64.313C35.2685 64.605 35.5134 64.84 35.8057 65.013C35.8787 66.642 36.0557 68.267 36.3881 69.877C37.6806 76.128 41.7833 81.698 46.8605 85.627C51.8297 89.471 57.6653 91.768 63.9619 92.511C67.0192 92.872 70.0815 92.758 73.1141 92.243L73.4917 92.178C76.2897 91.684 79.6762 90.867 81.6108 88.815C82.6285 87.736 82.0337 85.361 80.2349 85.585C79.2821 85.704 78.4527 85.852 77.5543 86.194C76.8546 86.461 76.1538 86.718 75.4356 86.936C74.0587 87.352 72.6356 87.677 71.2073 87.857C68.2303 88.231 65.136 88.132 62.194 87.567C56.8431 86.541 51.6434 84.174 47.5829 80.61C42.8628 76.467 40.0957 71.104 39.6882 64.92C39.2354 58.032 40.0535 50.979 40.7327 44.1265C41.0856 40.5621 41.5343 37.0049 42.0735 33.4626C42.6014 30.0015 42.9183 26.5453 43.3083 23.0697ZM85.0827 0.828286L84.8542 0.794083C75.7669 -0.550317 66.2052 -0.454916 57.6643 3.19088C56.0271 3.89018 54.4249 4.73349 52.9163 5.71209C51.8348 5.60239 50.7482 5.51338 49.6811 5.49878C48.3372 5.48168 47.0262 6.16008 46.8615 7.48108C45.603 7.63318 44.4433 8.08338 43.7024 8.98398C43.4133 9.33458 43.2198 9.74038 43.1221 10.1631C42.3482 10.3408 41.5898 10.6133 40.8695 10.9726C39.9959 11.4101 39.4917 12.6274 39.8004 13.528C39.8714 13.7324 39.9527 13.9316 40.0432 14.1264L40.1132 14.2717L40.072 14.3267C39.3743 15.4173 39.859 16.8481 40.9282 17.4991C41.7308 17.9873 42.6261 18.3762 43.5481 18.5643C43.4719 18.9236 43.402 19.285 43.3464 19.6506C43.3237 19.7988 43.5193 19.9044 43.6067 19.7584C43.6067 19.7584 43.2764 20.7581 42.7784 21.8594C42.5828 22.2925 43.2085 22.6771 43.4483 22.2397C44.0832 21.073 44.4763 19.8768 45.0525 18.6742C45.5845 18.6404 46.1155 18.522 46.6269 18.2959C46.9614 18.1479 47.2155 17.8985 47.3977 17.6005C47.409 17.6132 47.4152 17.628 47.4265 17.6428C49.1419 19.788 52.4944 20.5404 55.0855 21.2188C57.868 21.9482 60.7164 22.3982 63.575 22.73C68.5668 23.307 73.5967 23.4148 78.6122 23.639C78.9445 23.6536 79.2759 23.6699 79.6083 23.6855C81.6447 25.4228 84.2687 26.5024 86.9596 26.8306C88.3241 26.9967 89.9366 26.9545 91.4657 26.6159C92.0194 27.1654 92.7191 27.5724 93.4826 27.7815C93.6195 30.5499 95.2083 33.1711 97.608 34.699L97.5658 34.8635C96.969 37.2276 96.9772 39.8117 99.1155 41.4548C99.4047 41.6771 99.7216 41.8678 100.054 42.0258L99.9809 42.1891C98.8768 44.6988 98.5238 47.4709 100.6 49.553C101.442 50.397 102.92 50.197 103.552 49.229L103.583 49.18C103.618 49.122 103.655 49.067 103.692 49.01C103.747 49.122 103.834 49.216 103.961 49.269C104.75 49.599 105.065 49.356 105.786 49.016C106.45 48.699 107.153 48.462 107.87 48.278C108.455 48.13 109.038 48.024 109.625 47.963C113.333 49.341 115.729 53.568 115.16 57.535C114.851 59.695 113.631 61.834 111.505 62.73C110.575 63.123 109.481 63.288 108.475 63.155C107.112 62.975 106.064 62.141 104.653 62.618C104.096 62.806 103.748 63.231 103.718 63.812C103.668 64.725 104 65.41 104.561 65.917C103.572 66.72 102.775 67.836 101.916 68.726C100.841 69.84 99.7525 70.954 98.5918 71.981C97.4958 72.955 96.33 73.86 95.0962 74.663L94.9665 74.746C93.4188 75.726 91.4699 76.595 91.3958 78.643C91.3721 79.26 91.757 79.826 92.2787 80.141C94.2287 81.316 96.3505 79.773 97.8786 78.643C98.494 78.188 99.0919 77.717 99.6681 77.229C100.053 77.258 100.472 77.197 100.909 77.009C101.19 76.891 101.464 76.751 101.733 76.603C102.609 76.817 103.435 76.629 104.116 76.183C105.096 76.417 106.136 76.445 107.018 76.257C107.824 76.083 108.544 75.713 109.138 75.217C110.377 75.601 111.753 75.53 112.975 74.8C113.707 74.363 114.279 73.739 114.59 73.01C114.748 72.769 114.85 72.488 114.857 72.179L114.857 72.061C115.923 72.085 116.99 71.729 117.814 70.91C118.571 70.157 118.94 69.219 118.982 68.265C120.053 67.97 121.034 67.363 121.78 66.427C123.014 64.875 123.179 62.958 122.545 61.246C122.586 61.156 122.623 61.063 122.656 60.97C123.64 59.619 124.29 57.99 124.238 56.356C124.232 56.102 124.197 55.853 124.145 55.606C125.114 55.105 125.828 54.225 125.904 53.107C125.962 52.23 125.638 51.372 125.054 50.723C125.338 50.062 125.464 49.343 125.378 48.625C125.288 47.887 125.021 47.2466 124.629 46.7121C124.638 46.5177 124.627 46.3209 124.595 46.1201C124.634 45.9236 124.667 45.7207 124.684 45.5138C124.869 43.2479 123.26 41.2654 121.301 40.2192C120.786 39.9445 120.229 39.7204 119.673 39.5302C119.269 39.3907 118.66 39.3442 118.303 39.0885C118.319 39.0779 118.171 38.8922 118.145 38.7926C118.116 38.67 118.086 38.5496 118.07 38.4249C118.012 37.9007 118.055 37.3618 118.066 36.8355C118.114 34.4472 118.038 32.0484 117.779 29.6728C117.299 25.2683 116.114 20.9589 113.805 17.1102C111.868 13.885 109.216 11.1607 106.175 8.90128C100.117 4.40318 92.5565 1.95749 85.0827 0.828286ZM113.158 55.603C113.946 53.761 110.234 53.743 109.252 53.83L109.223 53.833C107.014 54.047 103.56 55.08 102.655 57.247C102.282 58.144 103.389 59.117 104.275 58.822C105.143 58.533 105.629 57.913 106.326 57.37C106.508 57.228 106.699 57.095 106.893 56.967C106.791 57.283 106.627 57.575 106.4 57.793L106.347 57.842C105.277 58.776 107.19 60.243 107.899 59.007C108.277 58.349 108.429 57.627 108.311 56.88C108.276 56.659 108.215 56.458 108.126 56.265C108.197 56.231 108.266 56.194 108.337 56.161L108.465 56.103C109.316 55.728 112.947 54.254 112.917 55.572C112.914 55.718 113.109 55.718 113.158 55.603Z" fill="#6D9886"/>
<path fill-rule="evenodd" clip-rule="evenodd" d="M62.085 75.859C63.5463 75.28 64.85 74.313 65.8039 73.078C66.1353 72.648 66.2207 72.195 66.1518 71.78C66.0736 71.314 65.7895 70.891 65.4026 70.608C65.0147 70.324 64.529 70.183 64.0597 70.255C63.6512 70.317 63.2458 70.534 62.9237 70.984L62.8568 71.074C62.2898 71.82 61.552 72.431 60.7103 72.826C59.8994 73.206 58.9918 73.383 58.0533 73.28C56.2649 73.084 55.0331 72.144 53.7232 70.867C53.5606 70.706 53.398 70.54 53.2354 70.371C53.1325 70.218 52.9884 70.119 52.83 70.068C52.654 70.01 52.4544 70.014 52.2712 70.076C52.0953 70.135 51.9378 70.249 51.8318 70.4C51.732 70.543 51.6744 70.72 51.6929 70.924C51.8133 72.246 52.5244 73.427 53.5349 74.354C54.6575 75.384 56.1455 76.096 57.546 76.346C59.0885 76.621 60.6609 76.424 62.085 75.859ZM56.8175 55.451C55.1762 56.421 52.6746 58.683 54.4404 61.088C56.5201 63.209 59.5125 60.778 60.9871 59.678C62.3547 58.826 63.892 61.018 62.6232 62.013C51.9656 69.684 47.6396 55.705 55.987 54.311C56.907 54.157 57.2476 55.151 56.8175 55.451ZM75.9162 46.5279C75.7351 44.3391 72.3064 43.842 71.9647 46.008C71.6601 47.948 72.0193 49.73 72.9186 51.477C73.7769 53.146 75.9357 52.368 76.0994 50.848C76.3185 48.811 76.0294 47.889 75.9162 46.5279ZM49.8149 45.5588C49.3364 44.9502 48.6459 44.5346 47.8196 44.7695C45.2358 45.5035 45.9972 49.07 46.9048 50.805C47.3977 51.748 48.9917 51.987 49.712 51.157C50.8861 49.804 51.448 47.1006 49.9559 45.7675C49.9147 45.6986 49.8695 45.629 49.8149 45.5588ZM72.9546 36.9504L72.5461 36.8809C71.2835 36.6686 69.7142 36.4646 68.821 37.4515C68.3467 37.9748 68.1841 38.9474 68.821 39.4483C69.9406 40.3296 71.1796 39.9881 72.5214 40.0627C73.6276 40.1244 74.6906 40.3024 75.7557 40.5985C78.0936 41.248 79.9983 42.4336 81.9947 43.7356C82.256 43.9063 82.5236 43.5806 82.3991 43.3424C81.2465 41.148 79.0136 39.3454 76.7765 38.2466C75.5818 37.6601 74.2759 37.1735 72.9546 36.9504ZM52.1704 35.9673L51.8575 36.0295C48.4576 36.7203 44.041 38.1003 42.4316 41.3465C42.3699 41.8055 42.4347 41.9039 42.4872 41.9682L42.5047 41.9896C42.549 42.0445 42.5829 42.1201 42.7877 42.1826C42.8443 42.1694 42.9019 42.1555 42.9595 42.1407C43.6984 41.9527 44.2818 41.6937 44.8468 41.425L45.4601 41.1315C46.1711 40.7926 46.8884 40.466 47.6488 40.2249C49.2706 39.7104 50.9396 39.3481 52.6334 39.1546C53.0008 39.1127 53.3548 38.9922 53.6336 38.7856C53.8981 38.5896 54.1008 38.3182 54.1934 37.9574C54.3128 37.4906 54.2778 37.1371 54.0206 36.7159C53.8271 36.3996 53.5493 36.1803 53.2313 36.0544C52.9072 35.9261 52.5377 35.8958 52.1704 35.9673Z" fill="#6D9886"/>
<path fill-rule="evenodd" clip-rule="evenodd" d="M56.2216 86.244C56.2216 86.244 65.8718 87.623 70.1916 85.674C74.4981 83.732 78.6873 81.853 82.5935 79.28C86.5964 76.644 89.9922 73.514 92.4155 69.508C94.6701 65.78 96.544 61.824 98.4312 57.899C98.5413 57.67 99.6249 55.389 100.008 54.625C100.596 53.439 102.319 53.811 102.319 55.652C102.319 57.492 102.403 71.431 99.095 76.914C96.1097 81.866 91.051 85.327 86.0243 88.347C80.4634 91.686 73.076 95.296 66.4408 96.25C60.4365 97.113 53.5842 94.69 49.2355 90.698C44.6903 86.523 43.403 80.85 41.0578 75.418C40.533 74.204 42.3904 73.471 42.9358 74.666C43.9617 76.914 56.2216 86.244 56.2216 86.244Z" fill="#6D9886"/>
<path fill-rule="evenodd" clip-rule="evenodd" d="M38.4967 52.295C39.111 53.921 40.0475 55.615 41.1907 56.984C45.8203 60.795 50.3182 58.685 52.6026 53.519C53.4701 49.869 51.1661 45.9372 48.7242 43.252C45.1988 39.8161 39.4434 41.6193 37.8227 45.7039C37.7239 46.2331 37.6642 46.761 37.6354 47.2873C37.6694 48.997 37.8814 50.459 38.4967 52.083V52.295ZM82.9939 49.014C76.8959 41.9623 65.4871 41.5852 65.7773 52.439C67.0882 66.178 89.1475 62.806 82.9939 49.014ZM36.5786 43.1314C36.7926 42.7795 37.0293 42.439 37.2886 42.1133C37.3843 42.0579 37.4389 41.5668 37.7908 41.5304C42.4924 36.4878 50.7524 39.3489 53.7366 44.3735C54.282 45.0088 54.7265 45.7526 55.0538 46.5384C57.9947 46.014 61.4224 46.1159 64.1576 47.1957C66.869 40.3116 75.0797 39.6969 80.4903 42.6383C83.8552 44.2473 86.0367 47.617 89.3101 49.468C97.0031 50.006 105.261 48.33 112.815 50.207C118.773 51.411 113.793 54.344 112.793 52.386C105.671 50.341 97.2325 52.069 89.8369 51.608C89.0682 52.873 87.5937 53.908 86.1242 53.864C84.5364 67.542 64.0176 65.274 63.3096 53.115C62.507 51.88 61.5088 50.699 60.0795 49.931C59.5321 49.82 59.0032 49.677 58.5206 49.456C57.6953 49.343 56.4224 49.683 55.6629 50.351C53.0605 65.529 38.0697 63.762 35.3911 50.465C35.3376 50.412 35.1884 50.214 35.0742 49.896C34.1573 48.717 31.913 48.279 32.2711 46.289C32.5911 44.2987 35.176 44.3223 36.5786 43.1314Z" fill="#6D9886"/>
</svg>
