<svg width="257" height="288" viewBox="0 0 257 288" fill="none" xmlns="http://www.w3.org/2000/svg">
<path d="M256.323 84.72C256.321 79.89 255.288 75.622 253.199 71.959C251.147 68.357 248.074 65.338 243.952 62.951C209.927 43.332 175.869 23.773 141.855 4.13398C132.685 -1.16002 123.794 -0.967015 114.692 4.40298C101.149 12.39 33.3437 51.237 13.1387 62.94C4.81766 67.757 0.768662 75.129 0.766662 84.711C0.753662 124.166 0.766662 163.62 0.753662 203.076C0.755662 207.8 1.74466 211.985 3.74166 215.593C5.79466 219.304 8.91066 222.406 13.1277 224.847C33.3337 236.55 101.148 275.394 114.688 283.383C123.794 288.756 132.685 288.948 141.858 283.652C175.873 264.012 209.933 244.454 243.963 224.835C248.18 222.395 251.296 219.291 253.349 215.583C255.343 211.975 256.334 207.79 256.336 203.065C256.336 203.065 256.336 124.176 256.323 84.72" fill="#5C8DBC"/>
<path d="M128.936 143.509L3.7417 215.593C5.7947 219.304 8.9107 222.406 13.1277 224.847C33.3337 236.55 101.148 275.394 114.688 283.383C123.794 288.756 132.685 288.948 141.858 283.652C175.873 264.012 209.933 244.454 243.963 224.835C248.18 222.395 251.296 219.291 253.349 215.583L128.936 143.509" fill="#1A4674"/>
<path d="M91.8546 164.861C99.1396 177.579 112.835 186.157 128.545 186.157C144.352 186.157 158.125 177.47 165.373 164.616L128.936 143.509L91.8546 164.861" fill="#1A4674"/>
<path d="M256.323 84.72C256.321 79.89 255.288 75.622 253.199 71.959L128.936 143.509L253.349 215.583C255.343 211.975 256.334 207.79 256.336 203.065C256.336 203.065 256.336 124.176 256.323 84.72" fill="#1B598E"/>
<path d="M214.007 148.661H204.286V158.385H194.564V148.661H184.842V138.94H194.564V129.218H204.286V138.94H214.007V148.661Z" fill="white"/>
<path d="M165.373 164.616C158.125 177.47 144.352 186.157 128.545 186.157C112.835 186.157 99.1397 177.579 91.8547 164.861C88.195 158.479 86.2731 151.25 86.2807 143.893C86.2807 120.552 105.204 101.63 128.545 101.63C144.154 101.63 157.777 110.101 165.098 122.689L202.039 101.417C187.356 76.071 159.943 59.019 128.545 59.019C81.6687 59.019 43.6697 97.019 43.6697 143.893C43.6697 159.271 47.7607 173.692 54.9107 186.131C69.5567 211.611 97.0477 228.768 128.545 228.768C160.1 228.768 187.634 211.542 202.259 185.987L165.373 164.616Z" fill="white"/>
</svg>
