<svg width="257" height="264" viewBox="0 0 257 264" fill="none" xmlns="http://www.w3.org/2000/svg">
<g clip-path="url(#clip0_204_91)">
<path d="M255.762 158.086C254.227 153.437 250.206 150.199 245.006 149.422C242.554 149.056 239.746 149.212 236.423 149.897C230.631 151.092 226.334 151.547 223.198 151.635C235.035 131.65 244.66 108.86 250.201 87.407C259.161 52.718 254.373 36.915 248.778 29.767C233.971 10.847 212.368 0.683001 186.306 0.372001C172.403 0.202001 160.198 2.947 153.831 4.921C147.903 3.875 141.529 3.291 134.841 3.183C122.304 2.983 111.227 5.716 101.762 11.333C96.5217 9.561 88.1117 7.063 78.3997 5.469C55.5577 1.719 37.1477 4.641 23.6817 14.154C7.37565 25.672 -0.183348 45.684 1.21465 73.634C1.65865 82.508 6.62265 109.508 14.4387 135.114C18.9307 149.832 23.7207 162.054 28.6757 171.444C35.7027 184.759 43.2217 192.6 51.6627 195.416C56.3937 196.992 64.9897 198.096 74.0307 190.566C75.1767 191.954 76.7057 193.333 78.7347 194.614C81.3117 196.239 84.4627 197.567 87.6097 198.354C98.9507 201.189 109.574 200.48 118.637 196.506C118.693 198.118 118.736 199.658 118.772 200.988C118.832 203.145 118.892 205.26 118.971 207.238C119.508 220.612 120.418 231.011 123.114 238.287C123.262 238.687 123.461 239.297 123.671 239.944C125.016 244.062 127.265 250.956 132.987 256.355C138.912 261.948 146.079 263.663 152.643 263.663C155.935 263.663 159.076 263.231 161.831 262.641C171.651 260.536 182.804 257.33 190.872 245.842C198.5 234.982 202.208 218.625 202.879 192.852C202.966 192.123 203.046 191.427 203.123 190.764L203.283 189.402L205.08 189.56L205.543 189.591C215.545 190.047 227.775 187.926 235.286 184.437C241.221 181.683 260.24 171.642 255.762 158.086" fill="black"/>
<path d="M238.66 160.722C208.92 166.857 206.875 156.788 206.875 156.788C238.275 110.195 251.402 51.052 240.075 36.577C209.171 -2.90799 155.676 15.766 154.783 16.25L154.496 16.302C148.62 15.082 142.045 14.356 134.654 14.235C121.198 14.015 110.99 17.763 103.244 23.637C103.244 23.637 7.81361 -15.677 12.2526 73.081C13.1966 91.963 39.3166 215.954 70.4706 178.503C81.8576 164.808 92.8606 153.229 92.8606 153.229C98.3246 156.859 104.867 158.711 111.725 158.046L112.258 157.594C112.092 159.294 112.168 160.957 112.471 162.926C104.445 171.893 106.804 173.467 90.7596 176.77C74.5246 180.116 84.0616 186.072 90.2886 187.63C97.8376 189.517 115.302 192.191 127.102 175.672L126.632 177.557C129.776 180.076 131.984 193.94 131.614 206.509C131.244 219.077 130.997 227.706 133.474 234.446C135.953 241.186 138.422 256.351 159.514 251.832C177.137 248.055 186.27 238.268 187.541 221.942C188.442 210.336 190.483 212.052 190.611 201.675L192.248 196.763C194.135 181.03 192.548 175.954 203.405 178.315L206.045 178.547C214.035 178.91 224.495 177.261 230.634 174.408C243.852 168.274 251.692 158.031 238.658 160.722H238.66" fill="#336791"/>
<path d="M108.83 81.525C106.15 81.152 103.723 81.497 102.495 82.427C101.805 82.95 101.591 83.556 101.533 83.973C101.379 85.078 102.153 86.3 102.629 86.93C103.975 88.714 105.941 89.94 107.887 90.21C108.169 90.25 108.45 90.268 108.729 90.268C111.974 90.268 114.925 87.741 115.185 85.876C115.51 83.54 112.119 81.983 108.83 81.526" fill="white"/>
<path d="M197.614 81.599C197.358 79.768 194.1 79.246 191.008 79.676C187.92 80.106 184.926 81.5 185.176 83.335C185.376 84.762 187.953 87.198 191.003 87.198C191.261 87.198 191.521 87.181 191.783 87.144C193.819 86.862 195.313 85.569 196.023 84.824C197.103 83.688 197.729 82.422 197.614 81.599" fill="white"/>
<path d="M248.556 160.025C247.422 156.596 243.772 155.493 237.708 156.745C219.703 160.461 213.255 157.887 211.138 156.328C225.133 135.008 236.646 109.236 242.857 85.191C245.799 73.801 247.424 63.223 247.557 54.601C247.704 45.138 246.092 38.184 242.768 33.936C229.366 16.811 209.696 7.625 185.886 7.373C169.517 7.189 155.687 11.378 153.006 12.556C147.36 11.152 141.205 10.29 134.504 10.18C122.216 9.981 111.594 12.923 102.8 18.92C98.9797 17.498 89.1077 14.109 77.0347 12.164C56.1627 8.804 39.5767 11.35 27.7407 19.735C13.6177 29.741 7.09772 47.627 8.36072 72.895C8.78572 81.396 13.6297 107.548 21.2737 132.593C31.3357 165.557 42.2737 184.218 53.7817 188.057C55.1287 188.506 56.6817 188.82 58.3947 188.82C62.5927 188.82 67.7397 186.928 73.0947 180.49C79.6263 172.655 86.3828 165.009 93.3557 157.564C97.8797 159.992 102.85 161.348 107.933 161.484C107.943 161.617 107.956 161.75 107.968 161.882C107.093 162.925 106.236 163.984 105.398 165.057C101.876 169.528 101.143 170.459 89.8057 172.793C86.5807 173.459 78.0157 175.224 77.8897 181.228C77.7537 187.788 88.0147 190.543 89.1837 190.835C93.2577 191.855 97.1827 192.358 100.926 192.358C110.029 192.358 118.04 189.366 124.442 183.577C124.245 206.963 125.22 230.007 128.028 237.028C130.328 242.776 135.946 256.823 153.692 256.822C156.296 256.822 159.162 256.519 162.315 255.843C180.836 251.873 188.879 243.687 191.99 225.64C193.655 215.995 196.512 192.964 197.856 180.61C200.692 181.495 204.343 181.9 208.29 181.899C216.522 181.899 226.021 180.15 231.978 177.385C238.67 174.277 250.746 166.651 248.556 160.025V160.025ZM204.45 76.545C204.389 80.192 203.887 83.503 203.355 86.959C202.782 90.676 202.19 94.519 202.041 99.184C201.894 103.724 202.461 108.444 203.009 113.009C204.117 122.229 205.254 131.721 200.853 141.087C200.122 139.792 199.47 138.453 198.903 137.078C198.356 135.752 197.168 133.622 195.523 130.674C189.124 119.198 174.139 92.324 181.81 81.358C184.095 78.094 189.894 74.738 204.45 76.545V76.545ZM186.806 14.758C208.14 15.229 225.016 23.21 236.964 38.478C246.128 50.189 236.037 103.476 206.824 149.447C206.53 149.073 206.235 148.701 205.938 148.33L205.568 147.868C213.117 135.401 211.641 123.066 210.327 112.13C209.787 107.642 209.277 103.403 209.407 99.421C209.541 95.201 210.099 91.581 210.639 88.081C211.302 83.768 211.977 79.305 211.791 74.044C211.93 73.492 211.986 72.84 211.913 72.066C211.438 67.021 205.678 51.922 193.938 38.256C187.516 30.781 178.151 22.416 165.364 16.774C170.864 15.634 178.385 14.571 186.806 14.758V14.758ZM67.4277 175.778C61.5277 182.872 57.4537 181.512 56.1137 181.066C47.3837 178.154 37.2537 159.702 28.3227 130.442C20.5947 105.124 16.0787 79.665 15.7207 72.526C14.5927 49.948 20.0657 34.213 31.9887 25.757C51.3927 11.997 83.2947 20.233 96.1137 24.41C95.9297 24.592 95.7377 24.762 95.5557 24.947C74.5197 46.191 75.0187 82.487 75.0707 84.706C75.0687 85.562 75.1407 86.774 75.2387 88.441C75.6007 94.546 76.2747 105.908 74.4747 118.775C72.8027 130.732 76.4887 142.435 84.5857 150.884C85.4167 151.749 86.2901 152.573 87.2027 153.352C83.5987 157.212 75.7657 165.748 67.4277 175.778V175.778ZM89.9067 145.785C83.3807 138.975 80.4167 129.503 81.7737 119.795C83.6737 106.203 82.9727 94.365 82.5957 88.005C82.5427 87.115 82.4957 86.335 82.4687 85.72C85.5417 82.995 99.7827 75.365 109.939 77.692C114.573 78.753 117.397 81.909 118.571 87.337C124.647 115.44 119.375 127.153 115.139 136.566C114.266 138.505 113.441 140.338 112.737 142.234L112.191 143.7C110.809 147.406 109.523 150.852 108.726 154.124C101.788 154.104 95.0387 151.14 89.9067 145.784V145.785ZM90.9717 183.685C88.9457 183.179 87.1237 182.3 86.0547 181.571C86.9477 181.151 88.5367 180.579 91.2927 180.011C104.63 177.266 106.69 175.328 111.188 169.617C112.219 168.307 113.388 166.823 115.007 165.015L115.009 165.013C117.42 162.313 118.523 162.771 120.523 163.601C122.144 164.271 123.723 166.303 124.363 168.539C124.666 169.595 125.006 171.599 123.893 173.159C114.497 186.315 100.805 186.146 90.9717 183.685V183.685ZM160.771 248.637C144.455 252.133 138.678 243.808 134.871 234.291C132.414 228.147 131.206 200.441 132.063 169.844C132.074 169.437 132.016 169.044 131.904 168.674C131.804 167.943 131.651 167.221 131.448 166.512C130.174 162.06 127.069 158.336 123.344 156.792C121.864 156.179 119.148 155.054 115.884 155.889C116.58 153.021 117.787 149.782 119.096 146.275L119.645 144.8C120.263 143.137 121.039 141.414 121.859 139.59C126.292 129.742 132.363 116.253 125.774 85.78C123.306 74.366 115.064 68.792 102.57 70.087C95.0797 70.862 88.2267 73.884 84.8087 75.617C84.0737 75.989 83.4017 76.349 82.7737 76.699C83.7277 65.199 87.3317 43.707 100.814 30.109C109.303 21.549 120.608 17.321 134.382 17.549C161.522 17.993 178.926 31.921 188.748 43.528C197.212 53.529 201.795 63.604 203.624 69.038C189.869 67.639 180.514 70.354 175.772 77.134C165.455 91.882 181.416 120.506 189.087 134.263C190.494 136.784 191.708 138.963 192.09 139.889C194.588 145.943 197.822 149.985 200.183 152.935C200.907 153.839 201.609 154.716 202.143 155.482C197.977 156.683 190.494 159.458 191.176 173.329C190.626 180.289 186.715 212.875 184.728 224.388C182.105 239.598 176.508 245.263 160.771 248.638V248.637ZM228.875 170.701C224.615 172.678 217.486 174.161 210.714 174.48C203.234 174.83 199.426 173.642 198.53 172.911C198.11 164.267 201.327 163.364 204.732 162.408C205.267 162.258 205.789 162.111 206.293 161.935C206.606 162.19 206.949 162.443 207.325 162.691C213.337 166.659 224.06 167.087 239.199 163.962L239.365 163.929C237.323 165.838 233.829 168.4 228.875 170.701Z" fill="white"/>
</g>
<defs>
<clipPath id="clip0_204_91">
<rect width="256" height="264" fill="white" transform="translate(0.753662)"/>
</clipPath>
</defs>
</svg>
