<svg width="32" height="32" viewBox="0 0 32 32" fill="none" xmlns="http://www.w3.org/2000/svg">
<path d="M16 2L28.12 9V23L16 30L3.88 23V9L16 2Z" fill="#673AB8"/>
<path d="M18.4998 19.2562C23.1968 15.652 25.887 11.274 24.5086 9.47752C23.1301 7.68107 18.205 9.14652 13.5079 12.7507C8.81088 16.3549 6.12064 20.7329 7.4991 22.5294C8.87756 24.3258 13.8027 22.8604 18.4998 19.2562Z" stroke="white"/>
<path d="M24.5087 22.522C25.8872 20.7256 23.1969 16.3475 18.4999 12.7433C13.8028 9.13916 8.87768 7.67371 7.49922 9.47015C6.12076 11.2666 8.811 15.6447 13.508 19.2488C18.2051 22.853 23.1303 24.3184 24.5087 22.522Z" stroke="white"/>
<path d="M16 17.86C17.0273 17.86 17.86 17.0272 17.86 16C17.86 14.9727 17.0273 14.14 16 14.14C14.9728 14.14 14.14 14.9727 14.14 16C14.14 17.0272 14.9728 17.86 16 17.86Z" fill="white"/>
</svg>
