<svg width="25" height="24" viewBox="0 0 25 24" fill="none" xmlns="http://www.w3.org/2000/svg">
<g clip-path="url(#clip0_209_151)">
<path fill-rule="evenodd" clip-rule="evenodd" d="M5.80168 15.124C5.80195 15.4543 5.73707 15.7814 5.61076 16.0866C5.48445 16.3918 5.29919 16.6691 5.06558 16.9026C4.83198 17.1361 4.55461 17.3213 4.24937 17.4474C3.94412 17.5736 3.61698 17.6384 3.28668 17.638C2.95655 17.6381 2.62963 17.5732 2.32461 17.4469C2.0196 17.3206 1.74247 17.1354 1.50908 16.9019C1.27568 16.6684 1.0906 16.3912 0.964418 16.0861C0.838234 15.7811 0.77342 15.4541 0.773682 15.124C0.773419 14.7938 0.838266 14.4667 0.964514 14.1616C1.09076 13.8565 1.27593 13.5792 1.50943 13.3457C1.74293 13.1122 2.02017 12.9271 2.32531 12.8008C2.63044 12.6746 2.95747 12.6097 3.28768 12.61H5.80268V15.124H5.80168ZM7.05868 15.124C7.05842 14.7938 7.12327 14.4667 7.24951 14.1616C7.37576 13.8565 7.56093 13.5792 7.79443 13.3457C8.02793 13.1122 8.30517 12.9271 8.61031 12.8008C8.91544 12.6746 9.24247 12.6097 9.57268 12.61C9.9029 12.6097 10.2299 12.6746 10.5351 12.8008C10.8402 12.9271 11.1174 13.1122 11.3509 13.3457C11.5844 13.5792 11.7696 13.8565 11.8959 14.1616C12.0221 14.4667 12.0869 14.7938 12.0867 15.124V21.41C12.0869 21.7402 12.0221 22.0672 11.8959 22.3724C11.7696 22.6775 11.5844 22.9547 11.3509 23.1882C11.1174 23.4217 10.8402 23.6069 10.5351 23.7332C10.2299 23.8594 9.9029 23.9242 9.57268 23.924C9.24247 23.9242 8.91544 23.8594 8.61031 23.7332C8.30517 23.6069 8.02793 23.4217 7.79443 23.1882C7.56093 22.9547 7.37576 22.6775 7.24951 22.3724C7.12327 22.0672 7.05842 21.7402 7.05868 21.41V15.124Z" fill="#E01E5A"/>
<path fill-rule="evenodd" clip-rule="evenodd" d="M9.57266 5.029C9.24236 5.02926 8.91525 4.96438 8.61005 4.83807C8.30486 4.71177 8.02757 4.52651 7.79406 4.2929C7.56054 4.0593 7.37539 3.78193 7.24921 3.47669C7.12302 3.17144 7.05827 2.8443 7.05866 2.514C7.0584 2.18378 7.12325 1.85675 7.24949 1.55162C7.37574 1.24649 7.56091 0.969247 7.79441 0.735748C8.02791 0.502249 8.30515 0.317079 8.61029 0.190832C8.91542 0.0645848 9.24245 -0.00026222 9.57266 7.96886e-07C9.90288 -0.00026222 10.2299 0.0645848 10.535 0.190832C10.8402 0.317079 11.1174 0.502249 11.3509 0.735748C11.5844 0.969247 11.7696 1.24649 11.8958 1.55162C12.0221 1.85675 12.0869 2.18378 12.0867 2.514V5.03H9.57366L9.57266 5.029ZM9.57266 6.305C9.90288 6.30474 10.2299 6.36958 10.535 6.49583C10.8402 6.62208 11.1174 6.80725 11.3509 7.04075C11.5844 7.27425 11.7696 7.55149 11.8958 7.85662C12.0221 8.16175 12.0869 8.48878 12.0867 8.819C12.0869 9.14922 12.0221 9.47625 11.8958 9.78138C11.7696 10.0865 11.5844 10.3638 11.3509 10.5973C11.1174 10.8308 10.8402 11.0159 10.535 11.1422C10.2299 11.2684 9.90288 11.3333 9.57266 11.333H3.26766C2.93753 11.3333 2.61058 11.2684 2.30552 11.1423C2.00045 11.0161 1.72325 10.831 1.48976 10.5976C1.25628 10.3642 1.07109 10.0871 0.944781 9.78207C0.818475 9.47706 0.753531 9.15013 0.753663 8.82C0.7534 8.48978 0.818247 8.16275 0.944494 7.85762C1.07074 7.55249 1.25591 7.27525 1.48941 7.04175C1.72291 6.80825 2.00015 6.62308 2.30529 6.49683C2.61042 6.37058 2.93745 6.30574 3.26766 6.306H9.57366L9.57266 6.305Z" fill="#36C5F0"/>
<path fill-rule="evenodd" clip-rule="evenodd" d="M19.6486 8.819C19.6483 8.4887 19.7132 8.16159 19.8395 7.85639C19.9658 7.5512 20.151 7.27391 20.3846 7.04039C20.6183 6.80688 20.8956 6.62173 21.2009 6.49555C21.5061 6.36936 21.8332 6.30461 22.1635 6.305C22.4938 6.30474 22.8208 6.36959 23.1259 6.49583C23.4311 6.62208 23.7083 6.80725 23.9418 7.04075C24.1753 7.27425 24.3605 7.55149 24.4867 7.85662C24.613 8.16176 24.6778 8.48878 24.6775 8.819C24.6778 9.14922 24.613 9.47625 24.4867 9.78138C24.3605 10.0865 24.1753 10.3638 23.9418 10.5973C23.7083 10.8308 23.4311 11.0159 23.1259 11.1422C22.8208 11.2684 22.4938 11.3333 22.1635 11.333H19.6486V8.82V8.819ZM18.3916 8.819C18.3918 9.14922 18.327 9.47625 18.2007 9.78138C18.0745 10.0865 17.8893 10.3638 17.6558 10.5973C17.4223 10.8308 17.1451 11.0159 16.8399 11.1422C16.5348 11.2684 16.2078 11.3333 15.8775 11.333C15.5472 11.3334 15.2201 11.2686 14.9149 11.1425C14.6096 11.0163 14.3323 10.8311 14.0986 10.5976C13.865 10.3641 13.6798 10.0868 13.5535 9.78161C13.4272 9.47641 13.3623 9.1493 13.3625 8.819V2.514C13.3623 2.1837 13.4272 1.85659 13.5535 1.55139C13.6798 1.2462 13.865 0.968907 14.0986 0.735395C14.3323 0.501883 14.6096 0.316734 14.9149 0.190545C15.2201 0.0643572 15.5472 -0.000392781 15.8775 1.79252e-06C16.2078 -0.000261224 16.5348 0.0645858 16.8399 0.190833C17.1451 0.31708 17.4223 0.50225 17.6558 0.735749C17.8893 0.969248 18.0745 1.24649 18.2007 1.55162C18.327 1.85676 18.3918 2.18378 18.3916 2.514V8.82V8.819Z" fill="#2EB67D"/>
<path fill-rule="evenodd" clip-rule="evenodd" d="M15.8778 18.895C16.208 18.8947 16.535 18.9596 16.8401 19.0858C17.1453 19.2121 17.4225 19.3972 17.656 19.6307C17.8895 19.8642 18.0747 20.1415 18.2009 20.4466C18.3272 20.7517 18.392 21.0788 18.3918 21.409C18.3922 21.7393 18.3274 22.0664 18.2012 22.3717C18.075 22.6769 17.8899 22.9543 17.6564 23.1879C17.4229 23.4215 17.1456 23.6068 16.8404 23.7331C16.5352 23.8594 16.2081 23.9242 15.8778 23.924C15.5475 23.9242 15.2204 23.8594 14.9152 23.7331C14.61 23.6068 14.3327 23.4215 14.0992 23.1879C13.8657 22.9543 13.6805 22.6769 13.5543 22.3717C13.4281 22.0664 13.3634 21.7393 13.3638 21.409V18.895H15.8778V18.895ZM15.8778 17.638C15.5476 17.6383 15.2205 17.5734 14.9154 17.4472C14.6103 17.3209 14.333 17.1357 14.0995 16.9022C13.866 16.6687 13.6808 16.3915 13.5546 16.0864C13.4284 15.7812 13.3635 15.4542 13.3638 15.124C13.3635 14.7938 13.4284 14.4667 13.5546 14.1616C13.6808 13.8565 13.866 13.5792 14.0995 13.3457C14.333 13.1122 14.6103 12.9271 14.9154 12.8008C15.2205 12.6746 15.5476 12.6097 15.8778 12.61H22.1828C22.513 12.6097 22.84 12.6746 23.1451 12.8008C23.4503 12.9271 23.7275 13.1122 23.961 13.3457C24.1945 13.5792 24.3797 13.8565 24.5059 14.1616C24.6322 14.4667 24.697 14.7938 24.6968 15.124C24.697 15.4542 24.6322 15.7812 24.5059 16.0864C24.3797 16.3915 24.1945 16.6687 23.961 16.9022C23.7275 17.1357 23.4503 17.3209 23.1451 17.4472C22.84 17.5734 22.513 17.6383 22.1828 17.638H15.8778V17.638Z" fill="#ECB22E"/>
</g>
<defs>
<clipPath id="clip0_209_151">
<rect width="24" height="24" fill="white" transform="translate(0.753662)"/>
</clipPath>
</defs>
</svg>
