<svg width="17" height="16" viewBox="0 0 17 16" fill="none" xmlns="http://www.w3.org/2000/svg">
<g clip-path="url(#clip0_209_149)">
<path d="M15.2537 0H2.25366C1.42866 0 0.753662 0.675 0.753662 1.5V14.5C0.753662 15.325 1.42866 16 2.25366 16H15.2537C16.0787 16 16.7537 15.325 16.7537 14.5V1.5C16.7537 0.675 16.0787 0 15.2537 0ZM13.7127 11.2L12.2497 11.222C12.2497 11.222 11.9337 11.285 11.5217 11C10.9747 10.625 10.4587 9.647 10.0557 9.775C9.64966 9.903 9.66166 10.781 9.66166 10.781C9.66166 10.781 9.66466 10.969 9.57066 11.068C9.47066 11.177 9.27066 11.199 9.27066 11.199H8.61766C8.61766 11.199 7.17366 11.287 5.90166 9.961C4.51366 8.517 3.28966 5.652 3.28966 5.652C3.28966 5.652 3.21766 5.464 3.29566 5.374C3.38266 5.271 3.61766 5.265 3.61766 5.265L5.18366 5.256C5.18366 5.256 5.33066 5.281 5.43666 5.359C5.52466 5.422 5.57066 5.543 5.57066 5.543C5.57066 5.543 5.82366 6.184 6.15866 6.762C6.81166 7.89 7.11766 8.137 7.33966 8.018C7.66166 7.843 7.56466 6.421 7.56466 6.421C7.56466 6.421 7.57066 5.905 7.40266 5.677C7.27166 5.499 7.02466 5.446 6.91866 5.433C6.83066 5.42 6.97466 5.217 7.16266 5.124C7.44366 4.986 7.94066 4.977 8.52866 4.983C8.98466 4.986 9.11966 5.017 9.29766 5.058C9.83866 5.189 9.65366 5.692 9.65366 6.899C9.65366 7.287 9.58466 7.83 9.86266 8.008C9.98166 8.086 10.2747 8.02 11.0097 6.774C11.3567 6.183 11.6187 5.49 11.6187 5.49C11.6187 5.49 11.6747 5.365 11.7627 5.312C11.8537 5.259 11.9757 5.275 11.9757 5.275L13.6227 5.266C13.6227 5.266 14.1167 5.207 14.1977 5.432C14.2817 5.666 14.0137 6.213 13.3417 7.11C12.2387 8.582 12.1137 8.444 13.0327 9.294C13.9077 10.107 14.0887 10.503 14.1207 10.553C14.4767 11.153 13.7147 11.2 13.7147 11.2H13.7127Z" fill="#596AFF"/>
</g>
<defs>
<clipPath id="clip0_209_149">
<rect width="16" height="16" fill="white" transform="translate(0.753662)"/>
</clipPath>
</defs>
</svg>
